<svg xmlns="http://www.w3.org/2000/svg" width="1920" height="1080" viewBox="0 0 1920 1080">
  <defs>
    <linearGradient id="bg" x1="0" y1="0" x2="1" y2="1"><stop offset="0" stop-color="#f7fafc"/><stop offset="1" stop-color="#edf4f1"/></linearGradient>
    <filter id="shadow" x="-20%" y="-20%" width="140%" height="150%">
      <feDropShadow dx="0" dy="14" stdDeviation="18" flood-color="#142235" flood-opacity="0.16"/>
    </filter>
    <marker id="arrow" markerWidth="12" markerHeight="12" refX="10" refY="6" orient="auto">
      <path d="M0,0 L12,6 L0,12 Z" fill="#6f8499"/>
    </marker>
    <style>
      svg { font-family: "Noto Sans CJK SC", "Microsoft YaHei", Arial, sans-serif; letter-spacing: 0; }
    </style>
  </defs>
  <rect width="1920" height="1080" fill="url(#bg)"/>
  <circle cx="1660" cy="160" r="280" fill="#35c2a4" opacity="0.08"/>
  <circle cx="1460" cy="930" r="250" fill="#2b6cb0" opacity="0.07"/>
  <g>
    <text x="110" y="96" font-size="48" fill="#162233" font-weight="850" text-anchor="start">面向国产软硬件环境的部署设计</text>
    <text x="112" y="142" font-size="25" fill="#607385" font-weight="400" text-anchor="start">面向 LoongArch + 麒麟 V11 的微服务部署与适配方案</text>
  </g>
  <g filter="url(#shadow)">
<rect x="160" y="255" width="360" height="240" rx="18" fill="#ffffff" stroke="#d7e3eb" stroke-width="2"/>
<rect x="160" y="255" width="360" height="12" rx="18" fill="#2b6cb0"/>
<text x="188" y="313" font-size="29" fill="#162233" font-weight="800" text-anchor="start">目标环境</text>
<text x="188" y="357" font-size="23" fill="#607385" font-weight="400" text-anchor="start">• LoongArch 架构</text>
<text x="188" y="399" font-size="23" fill="#607385" font-weight="400" text-anchor="start">• 麒麟高级服务器版 V11</text>
<text x="188" y="441" font-size="23" fill="#607385" font-weight="400" text-anchor="start">• Linux 6.6 内核背景</text>
</g>
<g filter="url(#shadow)">
<rect x="565" y="255" width="360" height="240" rx="18" fill="#ffffff" stroke="#d7e3eb" stroke-width="2"/>
<rect x="565" y="255" width="360" height="12" rx="18" fill="#1f8f7a"/>
<text x="593" y="313" font-size="29" fill="#162233" font-weight="800" text-anchor="start">容器化部署</text>
<text x="593" y="357" font-size="23" fill="#607385" font-weight="400" text-anchor="start">• Docker Compose</text>
<text x="593" y="399" font-size="23" fill="#607385" font-weight="400" text-anchor="start">• frontend /</text>
<text x="593" y="433" font-size="23" fill="#607385" font-weight="400" text-anchor="start">  web-server</text>
<text x="593" y="475" font-size="23" fill="#607385" font-weight="400" text-anchor="start">• tool-server /</text>
<text x="593" y="509" font-size="23" fill="#607385" font-weight="400" text-anchor="start">  PostgreSQL</text>
</g>
<g filter="url(#shadow)">
<rect x="970" y="255" width="360" height="240" rx="18" fill="#ffffff" stroke="#d7e3eb" stroke-width="2"/>
<rect x="970" y="255" width="360" height="12" rx="18" fill="#d58b22"/>
<text x="998" y="313" font-size="29" fill="#162233" font-weight="800" text-anchor="start">网络边界</text>
<text x="998" y="357" font-size="23" fill="#607385" font-weight="400" text-anchor="start">• frontend 暴露 80</text>
<text x="998" y="399" font-size="23" fill="#607385" font-weight="400" text-anchor="start">• web-server 经</text>
<text x="998" y="433" font-size="23" fill="#607385" font-weight="400" text-anchor="start">  nginx 代理</text>
<text x="998" y="475" font-size="23" fill="#607385" font-weight="400" text-anchor="start">• tool-server</text>
<text x="998" y="509" font-size="23" fill="#607385" font-weight="400" text-anchor="start">  仅内部访问</text>
</g>
<g filter="url(#shadow)">
<rect x="1375" y="255" width="360" height="240" rx="18" fill="#ffffff" stroke="#d7e3eb" stroke-width="2"/>
<rect x="1375" y="255" width="360" height="12" rx="18" fill="#1f9d62"/>
<text x="1403" y="313" font-size="29" fill="#162233" font-weight="800" text-anchor="start">集中配置</text>
<text x="1403" y="357" font-size="23" fill="#607385" font-weight="400" text-anchor="start">• servers.json</text>
<text x="1403" y="399" font-size="23" fill="#607385" font-weight="400" text-anchor="start">• rules.json</text>
<text x="1403" y="441" font-size="23" fill="#607385" font-weight="400" text-anchor="start">• llm.json</text>
<text x="1403" y="483" font-size="23" fill="#607385" font-weight="400" text-anchor="start">• logs 挂载与审计落库</text>
</g>
<rect x="255" y="710" width="230" height="92" rx="16" fill="#ffffff" stroke="#d7e3eb" stroke-width="2"/>
<rect x="255" y="710" width="230" height="10" rx="16" fill="#1f8f7a"/>
<text x="370" y="766" font-size="25" fill="#162233" font-weight="750" text-anchor="middle">浏览器</text>
<line x1="503" y1="756" x2="543" y2="756" stroke="#7890a4" stroke-width="4" stroke-linecap="round" marker-end="url(#arrow)"/>
<rect x="563" y="710" width="230" height="92" rx="16" fill="#ffffff" stroke="#d7e3eb" stroke-width="2"/>
<rect x="563" y="710" width="230" height="10" rx="16" fill="#2b6cb0"/>
<text x="678" y="766" font-size="25" fill="#162233" font-weight="750" text-anchor="middle">Nginx 前端</text>
<line x1="811" y1="756" x2="851" y2="756" stroke="#7890a4" stroke-width="4" stroke-linecap="round" marker-end="url(#arrow)"/>
<rect x="871" y="710" width="230" height="92" rx="16" fill="#ffffff" stroke="#d7e3eb" stroke-width="2"/>
<rect x="871" y="710" width="230" height="10" rx="16" fill="#d58b22"/>
<text x="986" y="766" font-size="25" fill="#162233" font-weight="750" text-anchor="middle">web-server</text>
<line x1="1119" y1="756" x2="1159" y2="756" stroke="#7890a4" stroke-width="4" stroke-linecap="round" marker-end="url(#arrow)"/>
<rect x="1179" y="710" width="230" height="92" rx="16" fill="#ffffff" stroke="#d7e3eb" stroke-width="2"/>
<rect x="1179" y="710" width="230" height="10" rx="16" fill="#1f9d62"/>
<text x="1294" y="766" font-size="25" fill="#162233" font-weight="750" text-anchor="middle">tool-server</text>
<line x1="1427" y1="756" x2="1467" y2="756" stroke="#7890a4" stroke-width="4" stroke-linecap="round" marker-end="url(#arrow)"/>
<rect x="1487" y="710" width="230" height="92" rx="16" fill="#ffffff" stroke="#d7e3eb" stroke-width="2"/>
<rect x="1487" y="710" width="230" height="10" rx="16" fill="#1f8f7a"/>
<text x="1602" y="766" font-size="25" fill="#162233" font-weight="750" text-anchor="middle">麒麟 OS</text>
<text x="210" y="870" font-size="25" fill="#607385" font-weight="400" text-anchor="start">边界：当前完成应用层 Agent、容器化隔离和工具安全控制，不宣称已深度集成 KySEC/KSAF。</text>
  <g>
    <text x="110" y="1024" font-size="20" fill="#607385" font-weight="400" text-anchor="start">Alascup Agent · 安全智能运维 Agent 软件功能演示</text>
    <text x="1810" y="1024" font-size="20" fill="#607385" font-weight="700" text-anchor="end">14/22</text>
  </g>
</svg>